# xmcd
#
# Track frame offsets:
#	150
#	12112
#	26362
#	38577
#	47935
#	61250
#	74430
#	84932
#	94370
#	109160
#	120075
#	132930
#
# Disc length: 1968
#
# Revision: 2
# Processed by: cddbd v1.5.1PL0 Copyright (c) Steve Scherf et al.
# Submitted via: CDex 1.51
# Normalized: r0:TDELIM( - ),TSWAP
#
DISCID=9107ae0c
DTITLE=Various Artist - Country Legends Volume Two Disc 3
DYEAR=1995
DGENRE=Country
TTITLE0=Hank Snow - I'm Movin' On
TTITLE1=Dolly Parton - Mule Skinner Blues
TTITLE2=Dickey Lee - Never Ending Song Of Love
TTITLE3=Charley Pride - Kiss An Angel Good Mornin'
TTITLE4=Ronnie Milsap - (I'd Be) A Legend In My Time
TTITLE5=Bobby Bare - Marie Laveau
TTITLE6=Jerry Reed - When Your Hot, You're Hot
TTITLE7=Dottie West - Country Sunshine
TTITLE8=Waylon Jennings - Luckenbach, Texas
TTITLE9=Charlie Rich - There Won't Be Anymore
TTITLE10=Waylon Jennings and Willie Nelson - Just To Satisfy You
TTITLE11=Willie Nelson - Sweet Memories
EXTD=YEAR: 1995
EXTT0=
EXTT1=
EXTT2=
EXTT3=
EXTT4=
EXTT5=
EXTT6=
EXTT7=
EXTT8=
EXTT9=
EXTT10=
EXTT11=
PLAYORDER=
